<svg id="Layer_1" data-name="Layer 1" xmlns="http://www.w3.org/2000/svg" xmlns:xlink="http://www.w3.org/1999/xlink" viewBox="0 0 500 63.5"><defs><style>.cls-1{fill:none;}.cls-2{clip-path:url(#clip-path);}.cls-3{fill:#ff5e7f;}</style><clipPath id="clip-path"><rect class="cls-1" x="-710" y="-483.79" width="1920" height="1080"/></clipPath></defs><title>Untitled-6</title><g class="cls-2"><path class="cls-3" d="M43.9,18.23V36.5c0,4.06-.75,7-2.25,8.65s-4,2.57-7.62,2.57-6.17-.86-7.67-2.57-2.24-4.59-2.24-8.65V18.23h1.05V36.5q0,5.63,2,7.94T34,46.75q4.83,0,6.82-2.31t2-7.94V18.23Z"/><path class="cls-3" d="M73.89,18.23V46.58a.56.56,0,0,1-.63.63H71.49a.8.8,0,0,1-.75-.46L57.3,22l-.78-1.41q-.52-.95-.78-1.44H54.69V47.21h-1V18.86a.56.56,0,0,1,.63-.63h1.64a.79.79,0,0,1,.76.46l13.14,24.2,1.85,3.4h1.18V18.23Z"/><path class="cls-3" d="M83.84,47.21v-29q5-.37,9.62-.38c3.89,0,6.62,1.12,8.19,3.34S104,27.26,104,32.72s-.79,9.31-2.35,11.53-4.3,3.34-8.19,3.34C90.43,47.59,87.23,47.46,83.84,47.21Zm1-28.22V46.5l8.57.12q5.25,0,7.35-3.08t2.1-10.82q0-7.72-2.1-10.81t-7.35-3.09C91.16,18.82,88.31,18.88,84.89,19Z"/><path class="cls-3" d="M129.12,46.29l.08.75q-4.12.18-12.35.17a4.17,4.17,0,0,1-4.28-4.28V22.52a4.17,4.17,0,0,1,4.28-4.29q8.24,0,12.35.17l-.08.76H117.06a3.29,3.29,0,0,0-3.44,3.44v8.65h13.77v.88H113.62V42.84a3.31,3.31,0,0,0,3.44,3.45Z"/><path class="cls-3" d="M156,47.21h-1.17l-3.11-9.15q-1.35-3.87-4.75-3.87c-3.83,0-6.7,0-8.61-.17V47.21h-1.05v-29c2.24-.22,5.34-.33,9.28-.33,3.14,0,5.32.56,6.54,1.7s1.82,3.28,1.82,6.44q0,3.87-1.24,5.59a5.78,5.78,0,0,1-4.09,2.14v.17c1.34.42,2.41,1.75,3.19,4Zm-17.64-14h8.23c2.72-.06,4.61-.58,5.67-1.58s1.6-2.86,1.6-5.61-.53-4.69-1.6-5.69-3-1.49-5.67-1.49q-5.37,0-8.23.09Z"/><path class="cls-3" d="M192.24,46.2l.25.76a36.13,36.13,0,0,1-7.89.76c-4,0-6.76-1.12-8.34-3.34s-2.37-6.11-2.37-11.66.79-9.43,2.37-11.65,4.36-3.34,8.34-3.34a33.24,33.24,0,0,1,7.3.71l-.25.76a44.35,44.35,0,0,0-7.05-.51q-5.39,0-7.5,3.11T175,32.72q0,7.81,2.12,10.92t7.5,3.11A44.93,44.93,0,0,0,192.24,46.2Z"/><path class="cls-3" d="M200.58,21.07q2.37-3.34,8.33-3.34t8.34,3.34q2.37,3.33,2.37,11.65t-2.37,11.66c-1.58,2.22-4.36,3.34-8.34,3.34s-6.75-1.12-8.33-3.34-2.38-6.11-2.38-11.66S199,23.29,200.58,21.07Zm15.83.73q-2.11-3.11-7.5-3.11t-7.49,3.11q-2.13,3.11-2.12,10.92t2.12,10.92q2.12,3.11,7.49,3.11t7.5-3.11q2.11-3.11,2.12-10.92T216.41,21.8Z"/><path class="cls-3" d="M248.69,18.23V46.58a.56.56,0,0,1-.63.63h-1.77a.81.81,0,0,1-.75-.46L232.1,22l-.78-1.41q-.52-.95-.78-1.44h-1V47.21h-1.05V18.86a.56.56,0,0,1,.63-.63h1.64a.78.78,0,0,1,.76.46l13.14,24.2,1.85,3.4h1.18V18.23Z"/><path class="cls-3" d="M269.14,33.52l-6.43-.88a5.93,5.93,0,0,1-4.32-2.1,9,9,0,0,1-1.3-5.34,14.12,14.12,0,0,1,.48-4.09,3.89,3.89,0,0,1,1.72-2.27,6.84,6.84,0,0,1,2.63-.92,26.33,26.33,0,0,1,3.9-.15c2.72.06,5.34.22,7.86.5l-.13.8c-3.36-.22-5.93-.33-7.73-.33-1.09,0-1.91,0-2.45,0a15.06,15.06,0,0,0-1.89.23,3.28,3.28,0,0,0-1.56.59,5,5,0,0,0-1,1.11,4.41,4.41,0,0,0-.66,1.81,18.34,18.34,0,0,0-.16,2.68,8,8,0,0,0,1.05,4.64,4.9,4.9,0,0,0,3.52,1.79l6.43.88a6.36,6.36,0,0,1,4.52,2.1q1.32,1.72,1.32,5.5a12.57,12.57,0,0,1-.4,3.43,6.38,6.38,0,0,1-1.05,2.22A3.91,3.91,0,0,1,271.68,47a10.86,10.86,0,0,1-2.39.55c-.8.08-1.84.12-3.13.12a73.54,73.54,0,0,1-8.57-.46l.13-.8q4.36.35,8.48.3a27.34,27.34,0,0,0,3.61-.25,5.61,5.61,0,0,0,2.31-.91,3.62,3.62,0,0,0,1.41-2,12.36,12.36,0,0,0,.4-3.45c0-2.26-.36-3.87-1.07-4.83A5.26,5.26,0,0,0,269.14,33.52Z"/><path class="cls-3" d="M301.44,19.16H291.23V47.21h-1.05v-28H280v-.93h21.42Z"/><path class="cls-3" d="M326.89,47.21h-1.18l-3.1-9.15q-1.35-3.87-4.75-3.87c-3.84,0-6.71,0-8.61-.17V47.21H308.2v-29q3.36-.33,9.28-.33c3.14,0,5.31.56,6.53,1.7s1.83,3.28,1.83,6.44q0,3.87-1.24,5.59a5.8,5.8,0,0,1-4.09,2.14v.17q2,.63,3.19,4Zm-17.64-14h8.23c2.72-.06,4.61-.58,5.67-1.58s1.6-2.86,1.6-5.61-.53-4.69-1.6-5.69-2.95-1.49-5.67-1.49c-3.58,0-6.33,0-8.23.09Z"/><path class="cls-3" d="M354.57,18.23V36.5c0,4.06-.75,7-2.25,8.65s-4,2.57-7.62,2.57-6.17-.86-7.67-2.57-2.24-4.59-2.24-8.65V18.23h1V36.5q0,5.63,2,7.94t6.87,2.31q4.83,0,6.82-2.31t2-7.94V18.23Z"/><path class="cls-3" d="M381.53,46.2l.25.76a36.13,36.13,0,0,1-7.89.76c-4,0-6.76-1.12-8.34-3.34s-2.37-6.11-2.37-11.66.79-9.43,2.37-11.65,4.36-3.34,8.34-3.34a33.4,33.4,0,0,1,7.31.71l-.26.76a44.35,44.35,0,0,0-7.05-.51q-5.38,0-7.5,3.11t-2.12,10.92q0,7.81,2.12,10.92t7.5,3.11A44.93,44.93,0,0,0,381.53,46.2Z"/><path class="cls-3" d="M407.4,19.16H397.2V47.21h-1.05v-28H386v-.93H407.4Z"/><path class="cls-3" d="M415.21,47.21h-1v-29h1Z"/><path class="cls-3" d="M426.41,21.07q2.37-3.34,8.34-3.34t8.33,3.34q2.37,3.33,2.38,11.65t-2.38,11.66c-1.58,2.22-4.36,3.34-8.33,3.34s-6.76-1.12-8.34-3.34S424,38.27,424,32.72,424.83,23.29,426.41,21.07Zm15.83.73q-2.12-3.11-7.49-3.11t-7.5,3.11q-2.13,3.11-2.12,10.92t2.12,10.92q2.12,3.11,7.5,3.11t7.49-3.11q2.13-3.11,2.12-10.92T442.24,21.8Z"/><path class="cls-3" d="M474.52,18.23V46.58a.56.56,0,0,1-.63.63h-1.77a.81.81,0,0,1-.75-.46L457.93,22l-.78-1.41q-.52-.95-.78-1.44h-1.05V47.21h-1.05V18.86a.56.56,0,0,1,.63-.63h1.64a.77.77,0,0,1,.76.46l13.14,24.2,1.85,3.4h1.18V18.23Z"/></g></svg>