<svg id="Layer_1" data-name="Layer 1" xmlns="http://www.w3.org/2000/svg" xmlns:xlink="http://www.w3.org/1999/xlink" viewBox="0 0 500 63.5"><defs><style>.cls-1,.cls-2{fill:none;}.cls-2{clip-rule:evenodd;}.cls-3{clip-path:url(#clip-path);}.cls-4{clip-path:url(#clip-path-2);}.cls-5{clip-path:url(#clip-path-3);}.cls-6{clip-path:url(#clip-path-4);}.cls-7{clip-path:url(#clip-path-5);}.cls-8{fill:#eee;}.cls-9{clip-path:url(#clip-path-6);}.cls-10{clip-path:url(#clip-path-8);}.cls-11{clip-path:url(#clip-path-10);}.cls-12{fill:#ff5e7f;}</style><clipPath id="clip-path"><rect class="cls-1" x="20.5" y="14.61" width="80.75" height="39.68"/></clipPath><clipPath id="clip-path-2"><rect class="cls-1" x="20.5" y="14.5" width="81" height="42"/></clipPath><clipPath id="clip-path-3"><rect class="cls-1" x="19.5" y="13.5" width="82" height="41"/></clipPath><clipPath id="clip-path-4"><path class="cls-2" d="M72.73,53.41a2.24,2.24,0,0,1,.43-3.13L93.75,34.51,78.49,23.67l-35.1,29L20.5,34.41,45.65,15.07a2.23,2.23,0,0,1,3.12.41,2.25,2.25,0,0,1-.42,3.13L27.71,34.48,43.34,47,78.28,18.07l23,16.31L75.84,53.83a2.18,2.18,0,0,1-1.34.46A2.24,2.24,0,0,1,72.73,53.41Z"/></clipPath><clipPath id="clip-path-5"><rect class="cls-1" x="20.5" y="14.5" width="81" height="40"/></clipPath><clipPath id="clip-path-6"><path class="cls-2" d="M40.28,37a1.84,1.84,0,0,1,.35-2.57L65.36,15.62a1.82,1.82,0,0,1,2.55.35,1.84,1.84,0,0,1-.35,2.57L42.83,37.38A1.82,1.82,0,0,1,40.28,37Z"/></clipPath><clipPath id="clip-path-8"><path class="cls-2" d="M54.8,56.5a1.83,1.83,0,0,1-1.16-3.24L81,30.67a1.83,1.83,0,1,1,2.32,2.82L56,56.08a1.82,1.82,0,0,1-1.16.42"/></clipPath><clipPath id="clip-path-10"><rect class="cls-1" x="20.5" y="5.5" width="412" height="51"/></clipPath></defs><title>intro-logo</title><g class="cls-3"><g class="cls-4"><g class="cls-5"><g class="cls-6"><g class="cls-7"><rect class="cls-8" x="15.5" y="9.61" width="90.75" height="49.68"/></g></g></g></g></g><g class="cls-9"><g class="cls-4"><rect class="cls-8" x="34.91" y="10.25" width="38.37" height="32.5"/></g></g><g class="cls-10"><g class="cls-4"><rect class="cls-8" x="47.97" y="25.25" width="40.98" height="36.25"/></g></g><g class="cls-11"><path class="cls-8" d="M144,18.52h1.76a.56.56,0,0,1,.63.63l1.26,28.35h-1l-1.26-28.06h-1L134.86,44.6a.51.51,0,0,1-.54.38h-1.77a.51.51,0,0,1-.54-.38l-9.5-25.16h-1L120.25,47.5h-1l1.26-28.35a.56.56,0,0,1,.63-.63h1.76a.53.53,0,0,1,.55.38l8,21.21.73,2c.32.87.57,1.53.74,2H134l1.51-4,8-21.12A.53.53,0,0,1,144,18.52Z"/><path class="cls-8" d="M172.24,36.92H158.42L154.6,47.5h-1.13l10.41-28.6a.53.53,0,0,1,.55-.38h1.81a.51.51,0,0,1,.54.38L177.2,47.5h-1.14Zm-.33-.93L166.78,21.8l-.84-2.36h-1.22l-.84,2.36L158.76,36Z"/><path class="cls-8" d="M202.31,47.5h-1.17L198,38.34q-1.35-3.86-4.75-3.86-5.75,0-8.61-.17V47.5h-1v-29c2.24-.22,5.34-.34,9.29-.34q4.69,0,6.53,1.7t1.82,6.45q0,3.87-1.24,5.59a5.78,5.78,0,0,1-4.09,2.14v.17c1.34.42,2.41,1.75,3.19,4Zm-17.64-14h8.24c2.71,0,4.6-.58,5.67-1.57s1.59-2.86,1.59-5.61-.53-4.7-1.59-5.69-3-1.49-5.67-1.49c-3.59,0-6.33,0-8.24.08Z"/><path class="cls-8" d="M216.13,32.84h-4.79c.06.87.09,2.07.09,3.61v11h-1v-29h1v9.91c0,.65,0,1.81-.09,3.49h4.79l10.21-13.4h1.26l-9.7,12.81a5.45,5.45,0,0,1-.93,1v.08c.51.51.81.83.93,1L228.31,47.5h-1.26Z"/><path class="cls-8" d="M245.83,33.81l-6.43-.88a5.93,5.93,0,0,1-4.33-2.1,9,9,0,0,1-1.3-5.34,14.07,14.07,0,0,1,.48-4.09A3.91,3.91,0,0,1,236,19.13a6.8,6.8,0,0,1,2.62-.92,26.47,26.47,0,0,1,3.91-.15q4.06.07,7.85.5l-.13.8c-3.35-.22-5.93-.34-7.72-.34-1.09,0-1.91,0-2.46.05a13.4,13.4,0,0,0-1.89.23,3.39,3.39,0,0,0-1.55.58,5,5,0,0,0-1,1.12,4.36,4.36,0,0,0-.65,1.8,18.42,18.42,0,0,0-.17,2.69,8,8,0,0,0,1.05,4.64,5,5,0,0,0,3.53,1.79l6.43.88a6.34,6.34,0,0,1,4.51,2.1q1.32,1.73,1.32,5.5a12.57,12.57,0,0,1-.4,3.43,6.2,6.2,0,0,1-1,2.22,3.93,3.93,0,0,1-1.84,1.24,10.94,10.94,0,0,1-2.4.55c-.8.08-1.84.12-3.13.12a73.66,73.66,0,0,1-8.57-.46l.13-.8c2.91.23,5.74.32,8.49.3a27.32,27.32,0,0,0,3.61-.26,5.65,5.65,0,0,0,2.31-.9,3.59,3.59,0,0,0,1.4-2,12,12,0,0,0,.4-3.45c0-2.27-.35-3.88-1.07-4.83A5.21,5.21,0,0,0,245.83,33.81Z"/><path class="cls-8" d="M293.24,18.52l-7.68,28.56a.56.56,0,0,1-.59.42h-1.76a.56.56,0,0,1-.59-.46l-6.18-24.36-.84-3.24h-1l-.84,3.24L267.58,47a.56.56,0,0,1-.59.46h-1.76a.55.55,0,0,1-.59-.42L257,18.52h1.09l6.72,25.16.75,2.9h1.18l.71-2.86L273.71,19a.56.56,0,0,1,.59-.46h1.6a.55.55,0,0,1,.58.46l6.3,24.7c.09.31.21.78.36,1.43s.27,1.13.36,1.47h1.17l.76-2.86,6.72-25.2Z"/><path class="cls-8" d="M316.55,46.58l.09.75q-4.12.16-12.35.17A4.17,4.17,0,0,1,300,43.22V22.8a4.17,4.17,0,0,1,4.29-4.28q8.23,0,12.35.17l-.09.75H304.5a3.32,3.32,0,0,0-3.45,3.45v8.65h13.78v.88H301.05V43.13a3.32,3.32,0,0,0,3.45,3.45Z"/><path class="cls-8" d="M325.75,47.5H324.7v-29h1.05Z"/><path class="cls-8" d="M353.93,19.44h-10.2V47.5h-1.05V19.44H332.51v-.92h21.42Z"/><path class="cls-8" d="M377.66,46.53v1H358.55v-1l17.68-27H358.68v-1h18.77v1l-17.68,27Z"/><path class="cls-8" d="M401.73,46.58l.08.75q-4.11.16-12.35.17a4.17,4.17,0,0,1-4.28-4.28V22.8a4.17,4.17,0,0,1,4.28-4.28q8.24,0,12.35.17l-.08.75H389.67a3.32,3.32,0,0,0-3.44,3.45v8.65H400v.88H386.23V43.13a3.32,3.32,0,0,0,3.44,3.45Z"/><path class="cls-8" d="M428.56,47.5h-1.17l-3.11-9.16q-1.35-3.86-4.74-3.86-5.76,0-8.62-.17V47.5h-1v-29c2.23-.22,5.33-.34,9.28-.34q4.69,0,6.53,1.7c1.22,1.14,1.82,3.29,1.82,6.45q0,3.87-1.23,5.59a5.83,5.83,0,0,1-4.1,2.14v.17c1.34.42,2.41,1.75,3.19,4Zm-17.64-14h8.24c2.71,0,4.6-.58,5.67-1.57s1.59-2.86,1.59-5.61-.53-4.7-1.59-5.69-3-1.49-5.67-1.49c-3.59,0-6.33,0-8.24.08Z"/></g><path class="cls-12" d="M438.62,43.89H439a.44.44,0,0,1,.5.5V47a.44.44,0,0,1-.5.5h-.42a.45.45,0,0,1-.51-.5V44.39A.45.45,0,0,1,438.62,43.89Z"/><path class="cls-12" d="M449.83,47.5h-1.05v-29h1.05Z"/><path class="cls-12" d="M461,21.36Q463.39,18,469.36,18t8.34,3.34q2.37,3.33,2.37,11.65T477.7,44.67Q475.32,48,469.36,48T461,44.67q-2.37-3.35-2.37-11.66T461,21.36Zm15.84.73Q474.73,19,469.36,19c-3.59,0-6.08,1-7.5,3.11S459.74,27.8,459.74,33s.71,8.85,2.12,10.92,3.91,3.11,7.5,3.11,6.08-1,7.5-3.11S479,38.22,479,33,478.27,24.16,476.86,22.09Z"/></svg>