<?xml version="1.0" encoding="utf-8"?>
<!-- Generator: Adobe Illustrator 22.0.1, SVG Export Plug-In . SVG Version: 6.00 Build 0)  -->
<!DOCTYPE svg PUBLIC "-//W3C//DTD SVG 1.1//EN" "http://www.w3.org/Graphics/SVG/1.1/DTD/svg11.dtd" [
	<!ENTITY Drop_x0020_Shadow "fill:none;">
	<!ENTITY Outer_x0020_Glow_x0020_5_x0020_pt "fill:none;">
	<!ENTITY Jive_GS "fill:#A6D0E4;">
	<!ENTITY st0 "fill:#FF5E7F;">
]>
<svg version="1.1" id="Layer_1" xmlns="http://www.w3.org/2000/svg" xmlns:xlink="http://www.w3.org/1999/xlink" x="0px" y="0px"
	 viewBox="0 0 168.8 90.5" style="enable-background:new 0 0 168.8 90.5;" xml:space="preserve">
<g>
	<path style="&st0;" d="M113.5,80.1c-1.3,0-2.6-0.6-3.5-1.7c-1.5-1.9-1.1-4.6,0.8-6.1l40.4-30.8l-29.9-21.2L52.5,77L7.6,41.3
		L56.9,3.6c1.9-1.5,4.6-1.1,6.1,0.8c1.5,1.9,1.1,4.6-0.8,6.1l-40.5,31l30.6,24.4l68.5-56.4l45,31.8l-49.8,38
		C115.3,79.8,114.4,80.1,113.5,80.1z"/>
</g>
<g>
	<path style="&st0;" d="M49.3,47.5c-1.1,0-2.2-0.5-2.9-1.4c-1.2-1.6-0.9-3.8,0.7-5L95.8,4.2c1.6-1.2,3.8-0.9,5,0.7
		c1.2,1.6,0.9,3.8-0.7,5L51.4,46.8C50.8,47.3,50,47.5,49.3,47.5z"/>
</g>
<path style="&st0;" d="M71.7,87.8c-1,0-2.1-0.4-2.8-1.3c-1.3-1.5-1-3.8,0.5-5L123,37.2c1.5-1.3,3.8-1,5,0.5c1.3,1.5,1,3.8-0.5,5
	L74,87C73.3,87.5,72.5,87.8,71.7,87.8z"/>
</svg>
