<svg id="Layer_1" data-name="Layer 1" xmlns="http://www.w3.org/2000/svg" viewBox="0 0 168.75 90.5"><defs><style>.cls-1{fill:#fafafa;}</style></defs><title>logo-light</title><path class="cls-1" d="M113.47,81.37a4.35,4.35,0,0,1-2.64-7.81L151.2,42.78,121.28,21.62,52.47,78.27,7.6,42.59,56.91,4.83a4.35,4.35,0,0,1,5.29,6.91l-40.46,31L52.38,67.08l68.5-56.39,45,31.83-49.8,38A4.33,4.33,0,0,1,113.47,81.37Z"/><path class="cls-1" d="M49.25,48.76a3.58,3.58,0,0,1-2.17-6.44L95.77,5.43a3.58,3.58,0,1,1,4.32,5.71L51.41,48A3.58,3.58,0,0,1,49.25,48.76Z"/><path class="cls-1" d="M74.72,86.06a3.58,3.58,0,0,1-2.29-6.34L126,35.46A3.58,3.58,0,1,1,130.59,41L77,85.24A3.54,3.54,0,0,1,74.72,86.06Z"/></svg>