<?xml version="1.0" encoding="UTF-8"?>
<svg width="1900px" height="1000px" viewBox="0 0 1900 1000" version="1.1" xmlns="http://www.w3.org/2000/svg" xmlns:xlink="http://www.w3.org/1999/xlink">
    <!-- Generator: Sketch 52.5 (67469) - http://www.bohemiancoding.com/sketch -->
    <title>monetate-logo</title>
    <desc>Created with Sketch.</desc>
    <defs>
        <rect id="path-1" x="0" y="0" width="1900" height="1000"></rect>
        <polygon id="path-3" points="0 0.22022619 1499.96331 0.22022619 1499.96331 207.849881 0 207.849881"></polygon>
    </defs>
    <g id="Page-1" stroke="none" stroke-width="1" fill="none" fill-rule="evenodd">
        <g id="monetate-logo">
            <mask id="mask-2" fill="white">
                <use xlink:href="#path-1"></use>
            </mask>
            <rect stroke-opacity="0.01" stroke="#FFFFFF" x="0.5" y="0.5" width="1899" height="999"></rect>
            <g id="monetate-logo-no-tagline-blue" mask="url(#mask-2)">
                <g transform="translate(200.000000, 395.000000)">
                    <path d="M233.225791,104.967943 C233.225791,85.7396485 232.610384,69.6684995 232,55.7855705 L271.376039,55.7855705 L273.194631,76.6012011 L274.103927,76.6012011 C280.50919,66.5063464 293.937635,52 319.267309,52 C338.78201,52 353.730135,62.410319 360.145445,78.4839717 L360.758341,78.4839717 C366.550708,70.2793985 372.958482,63.9776253 380.288112,59.5586227 C388.522015,54.8366742 397.675261,52 408.669706,52 C437.335141,52 459,72.8081195 459,119.173848 L459,210 L413.851689,210 L413.851689,126.106549 C413.851689,103.718605 406.831019,90.7845722 391.860287,90.7845722 C380.888449,90.7845722 373.571378,98.3507059 370.215523,107.504175 C369.313762,110.966771 368.680771,115.708749 368.680771,119.804776 L368.680771,210 L323.529949,210 L323.529949,123.247342 C323.529949,104.019047 316.813214,90.7845722 301.865089,90.7845722 C289.968884,90.7845722 282.963285,100.248499 280.20023,107.81964 C278.685574,111.600203 278.374102,115.999176 278.374102,120.107722 L278.374102,210 L233.225791,210 L233.225791,104.967943" id="Fill-1" fill="#238EC2"></path>
                    <path d="M523.63199,129.481277 C523.63199,155.91061 534.240184,175.712015 553.950748,175.712015 C572.167974,175.712015 583.387988,157.163801 583.387988,129.18171 C583.387988,106.549393 574.879956,83.2730064 553.950748,83.2730064 C532.110055,83.2730064 523.63199,106.85645 523.63199,129.481277 Z M631,127.928519 C631,184.202255 592.482866,210 552.744591,210 C509.365368,210 476,180.420216 476,130.756935 C476,80.7441583 507.537402,49 555.471556,49 C600.651275,49 631,81.3732498 631,127.928519 Z" id="Fill-2" fill="#238EC2"></path>
                    <path d="M649.221554,104.762829 C649.221554,85.4969834 648.609528,69.3944494 648,55.4844087 L688.036486,55.4844087 L690.174829,76.9678331 L691.071635,76.9678331 C697.156921,66.8532643 712.00292,52 736.906129,52 C767.250123,52 790,73.1723612 790,118.670361 L790,210 L743.873232,210 L743.873232,124.359806 C743.873232,104.4618 737.213391,90.8753652 720.511329,90.8753652 C707.7687,90.8753652 700.19207,100.034167 696.847161,108.886924 C695.628105,112.035184 695.328337,116.462816 695.328337,120.882923 L695.328337,210 L649.221554,210 L649.221554,104.762829" id="Fill-3" fill="#238EC2"></path>
                    <path d="M906.24012,112.14841 C906.24012,100.462057 901.40164,80.8837191 880.167753,80.8837191 C860.768893,80.8837191 852.874531,99.5046933 851.656173,112.14841 L906.24012,112.14841 Z M851.963259,144.966937 C853.184114,164.846017 872.293364,174.319407 893.826847,174.319407 C909.583115,174.319407 922.318454,172.103937 934.7517,167.688034 L940.818525,200.203313 C925.658952,206.834685 907.173861,210 887.150843,210 C836.798693,210 808,179.697685 808,131.373375 C808,92.2467739 831.348537,49 882.899072,49 C930.821995,49 949,87.8233527 949,126.022665 C949,134.215392 948.103708,141.478324 947.494529,144.966937 L851.963259,144.966937 Z" id="Fill-4" fill="#238EC2"></path>
                    <path d="M1019.59712,0 L1019.59712,43.9281617 L1053,43.9281617 L1053,81.201606 L1019.59712,81.201606 L1019.59712,140.105391 C1019.59712,159.735804 1024.1844,168.719171 1037.9841,168.719171 C1044.40579,168.719171 1047.46902,168.380413 1051.76865,167.396759 L1052.07901,205.656367 C1046.25281,207.992544 1034.91834,210 1022.0472,210 C1007.00859,210 994.462954,204.346501 986.787205,196.003011 C978.213177,186.362202 973.91607,170.7191 973.91607,147.766346 L973.91607,81.201606 L954,81.201606 L954,43.9281617 L973.91607,43.9281617 L973.91607,13.638156 L1019.59712,0" id="Fill-5" fill="#238EC2"></path>
                    <path d="M1155.18707,133.887414 C1131.02211,133.887414 1112.29345,139.868776 1112.29345,158.094956 C1112.29345,170.359744 1120.15695,176.356085 1130.42774,176.356085 C1141.58635,176.356085 1151.25781,168.484952 1154.29428,158.741522 C1154.88616,156.210178 1155.18707,153.381762 1155.18707,150.573318 L1155.18707,133.887414 Z M1199.58524,169.428589 C1199.58524,183.892702 1200.20696,198.042268 1202,206.525018 L1160.63581,206.525018 L1157.90771,191.129751 L1156.99254,191.129751 C1147.34347,203.394539 1132.2357,210 1114.70075,210 C1084.80105,210 1067,187.352705 1067,162.823128 C1067,122.898284 1101.42332,104.028034 1153.6651,104.028034 L1153.6651,102.143256 C1153.6651,93.6605058 1149.44985,82.0198161 1126.79939,82.0198161 C1111.68665,82.0198161 1095.6861,87.3571085 1086.01464,93.6605058 L1077.56424,62.8400136 C1087.8226,56.8586513 1108.07074,49 1134.95137,49 C1184.19398,49 1199.58524,79.1889042 1199.58524,115.661235 L1199.58524,169.428589 Z" id="Fill-6" fill="#238EC2"></path>
                    <path d="M1274.58946,0 L1274.58946,43.9281617 L1308,43.9281617 L1308,81.201606 L1274.58946,81.201606 L1274.58946,140.105391 C1274.58946,159.735804 1279.19293,168.719171 1293.00337,168.719171 C1299.43915,168.719171 1302.48542,168.380413 1306.76837,167.396759 L1307.09394,205.656367 C1301.27398,207.992544 1289.9369,210 1277.05524,210 C1262.03589,210 1249.46467,204.346501 1241.79473,196.003011 C1233.21368,186.362202 1228.92821,170.7191 1228.92821,147.766346 L1228.92821,81.201606 L1209,81.201606 L1209,43.9281617 L1228.92821,43.9281617 L1228.92821,13.638156 L1274.58946,0" id="Fill-7" fill="#238EC2"></path>
                    <path d="M1420.25563,112.14841 C1420.25563,100.462057 1415.39502,80.8837191 1394.18511,80.8837191 C1374.77514,80.8837191 1366.87884,99.5046933 1365.67555,112.14841 L1420.25563,112.14841 Z M1365.98261,144.966937 C1367.18091,164.846017 1386.29131,174.319407 1407.82326,174.319407 C1423.57592,174.319407 1436.31785,172.103937 1448.75271,167.688034 L1454.8191,200.203313 C1439.65312,206.834685 1421.17433,210 1401.14773,210 C1350.81912,210 1322,179.697685 1322,131.373375 C1322,92.2467739 1345.36186,49 1396.89626,49 C1444.82079,49 1463,87.8233527 1463,126.022665 C1463,134.215392 1462.09628,141.478324 1461.47217,144.966937 L1365.98261,144.966937 Z" id="Fill-8" fill="#238EC2"></path>
                    <g id="Group-12" stroke-width="1" fill="none" transform="translate(0.000000, 3.000000)">
                        <mask id="mask-4" fill="white">
                            <use xlink:href="#path-3"></use>
                        </mask>
                        <g id="Clip-10"></g>
                        <path d="M1473.34138,35.9860893 L1475.82232,35.9860893 C1478.71634,35.9860893 1481.07461,35.0178214 1481.07461,32.7009841 C1481.07461,30.6093254 1479.56502,29.2307321 1476.2354,29.2307321 C1474.85849,29.2307321 1473.88964,29.3733452 1473.34138,29.5209623 L1473.34138,35.9860893 Z M1473.2087,48.7061766 L1467.97644,48.7061766 L1467.97644,26.0582163 C1470.03429,25.7855 1472.9208,25.3576607 1476.64346,25.3576607 C1480.93442,25.3576607 1482.87461,26.0582163 1484.40423,27.1816071 C1485.76111,28.144871 1486.72996,29.7936786 1486.72996,31.9979266 C1486.72996,34.7501091 1484.65958,36.5465337 1482.04596,37.3621806 L1482.04596,37.6348968 C1484.25152,38.3304484 1485.34053,40.1493909 1486.01396,43.1542738 C1486.72996,46.599506 1487.29324,47.858004 1487.6988,48.7061766 L1482.17864,48.7061766 C1481.46265,47.858004 1481.07461,45.9264722 1480.38115,43.1542738 C1479.9881,40.8149187 1478.59617,39.7190496 1475.70216,39.7190496 L1473.2087,39.7190496 L1473.2087,48.7061766 Z M1459.26435,36.9543571 C1459.26435,47.0223413 1466.85739,55.0236865 1476.93136,55.0236865 C1486.72996,55.1788095 1494.1903,47.0223413 1494.1903,37.0944683 C1494.1903,27.0289861 1486.72996,18.8925337 1476.64346,18.8925337 C1466.85739,18.8925337 1459.26435,27.0289861 1459.26435,36.9543571 Z M1499.96331,36.9543571 C1499.96331,49.6394167 1489.75165,59.7074008 1476.79117,59.7074008 C1463.81567,59.7074008 1453.47132,49.6394167 1453.47132,36.9543571 C1453.47132,24.2768036 1463.81567,14.3414246 1476.93136,14.3414246 C1489.75165,14.3414246 1499.96331,24.2768036 1499.96331,36.9543571 Z" id="Fill-9" fill="#238EC2" mask="url(#mask-4)"></path>
                        <path d="M169.818079,140.288804 C161.731861,160.287163 152.298775,159.181286 152.298775,159.181286 C132.926902,159.181286 132.11077,130.948897 132.083231,126.835635 L132.083231,126.820623 C132.11077,122.707361 132.926902,94.4749722 152.298775,94.4749722 C152.298775,94.4749722 161.731861,93.3565853 169.818079,113.384968 C169.818079,113.384968 172.872316,115.651766 176.161879,114.463323 L176.161879,77.4589782 C176.161879,63.5004087 164.247852,52.1964444 149.564983,52.1964444 L111.404545,52.1964444 C111.366993,52.1864365 111.339455,52.1689226 111.339455,52.1689226 C96.6015097,47.9355655 103.603723,39.5213929 103.603723,39.5213929 C126.715786,31.0847024 125.416483,21.2719206 125.416483,21.2719206 C125.416483,1.0859127 92.8312795,0.237740079 88.0871983,0.22022619 L88.0671705,0.22022619 C83.3331032,0.237740079 50.7428927,1.0859127 50.7428927,21.2719206 C50.7428927,21.2719206 49.4536041,31.0847024 72.5556523,39.5213929 C72.5556523,39.5213929 79.5478522,47.9355655 64.8649835,52.1689226 C64.8649835,52.1689226 64.7998932,52.1864365 64.7648445,52.1964444 L26.5893859,52.1964444 C11.9065172,52.1964444 0,63.5004087 0,77.4589782 L0,113.66519 C3.79526495,116.367333 7.82335289,113.384968 7.82335289,113.384968 C15.9120739,93.3565853 25.3451599,94.4849802 25.3451599,94.4849802 C44.7170334,94.4849802 45.5331655,122.707361 45.5531933,126.820623 L45.5531933,126.835635 C45.5331655,130.948897 44.7170334,159.181286 25.3451599,159.181286 C25.3451599,159.181286 15.9120739,160.299673 7.82335289,140.288804 C7.82335289,140.288804 3.79526495,137.291427 0,139.991067 L0,182.74247 C0,196.683526 11.9065172,208 26.5893859,208 L75.4997364,208 C77.3623203,204.817476 74.7662189,201.652466 74.7662189,201.652466 C54.9487272,194.416728 56.0552622,187.824 56.0552622,187.824 C56.0552622,170.512772 84.0115444,169.77969 88.0671705,169.769683 L88.0821914,169.769683 C92.1553418,169.77969 120.099107,170.512772 120.099107,187.824 C120.099107,187.824 121.213152,194.416728 101.393157,201.652466 C101.393157,201.652466 98.794552,204.817476 100.66715,208 L149.564983,208 C164.247852,208 176.161879,196.683526 176.161879,182.74247 L176.161879,139.192935 C172.872316,138.009496 169.818079,140.288804 169.818079,140.288804" id="Fill-11" fill="#238EC2" mask="url(#mask-4)"></path>
                    </g>
                </g>
            </g>
        </g>
    </g>
</svg>